<svg width="16" height="16" viewBox="0 0 16 16" fill="none" xmlns="http://www.w3.org/2000/svg">
<g clip-path="url(#clip0_331_2084)">
<g clip-path="url(#clip1_331_2084)">
<path d="M7.99984 15.3334C3.95301 15.3334 0.666504 12.0469 0.666504 8.00008C0.666504 3.95326 3.95301 0.666748 7.99984 0.666748C12.0467 0.666748 15.3332 3.95326 15.3332 8.00008C15.3332 12.0469 12.0467 15.3334 7.99984 15.3334ZM7.99984 2.13832C4.76238 2.13832 2.13808 4.76262 2.13808 8.00008C2.13808 11.2375 4.76238 13.8618 7.99984 13.8618C11.2373 13.8618 13.8616 11.2375 13.8616 8.00008C13.8616 4.76262 11.2373 2.13832 7.99984 2.13832Z" fill="#2B98BA"/>
<path d="M11.1148 10.8697C10.9676 10.8697 10.8205 10.8206 10.6978 10.747L7.583 8.61325C7.38679 8.46609 7.26416 8.24535 7.26416 8.00009V3.53632C7.26416 3.11938 7.583 2.80054 7.99995 2.80054C8.41689 2.80054 8.73573 3.11938 8.73573 3.53632V7.60767L11.5317 9.52071C11.8751 9.74145 11.9487 10.2074 11.7279 10.5508C11.5808 10.7716 11.36 10.8697 11.1148 10.8697Z" fill="#2B98BA"/>
</g>
</g>
<defs>
<clipPath id="clip0_331_2084">
<rect width="16" height="16" fill="white"/>
</clipPath>
<clipPath id="clip1_331_2084">
<rect width="14.6667" height="14.6667" fill="white" transform="translate(0.666504 0.666748)"/>
</clipPath>
</defs>
</svg>
