<svg width="24" height="24" viewBox="0 0 24 24" fill="none" xmlns="http://www.w3.org/2000/svg">
<path fill-rule="evenodd" clip-rule="evenodd" d="M13.227 1.5V3.32635H14.7271V1.5H13.227ZM22.5 9.27295H20.6737V10.773H22.5V9.27295ZM19.4015 6.02513L20.9832 5.11196L21.7332 6.41099L20.1515 7.32417L19.4015 6.02513ZM17.589 2.26684L16.6759 3.8485L17.9749 4.5985L18.8881 3.01684L17.589 2.26684ZM9.97923 4.5985L9.06606 3.01684L10.3651 2.26684L11.2783 3.8485L9.97923 4.5985ZM22.5 17.0625C22.5 14.7926 21.1571 12.8476 19.2493 12.0332C19.4858 11.4082 19.6152 10.7306 19.6152 10.0228C19.6152 6.88479 17.0713 4.34088 13.9332 4.34088C12.2693 4.34088 10.7725 5.05607 9.73334 6.1958C9.61456 6.19029 9.4951 6.1875 9.375 6.1875C5.02576 6.1875 1.5 9.83918 1.5 14.3438C1.5 18.8483 5.02576 22.5 9.375 22.5C9.42438 22.5 9.47366 22.4995 9.52283 22.4986V22.5H17.2461L17.25 22.5L17.2538 22.5H17.431V22.4968C20.2467 22.398 22.5 20.0028 22.5 17.0625ZM18.1152 10.0228C18.1152 10.6011 17.9978 11.152 17.7856 11.6529C17.6095 11.6345 17.4308 11.625 17.25 11.625C17.1013 11.625 16.954 11.6314 16.8083 11.644C15.9785 9.19276 14.0502 7.2765 11.6351 6.52837C12.2946 6.09379 13.0843 5.84088 13.9332 5.84088C16.2428 5.84088 18.1152 7.71321 18.1152 10.0228ZM9.375 21L9.40581 20.9999L9.52283 21L17.248 21H17.25L17.2532 21C19.2737 20.9982 21 19.286 21 17.0625C21 14.8378 19.2719 13.125 17.25 13.125C16.7024 13.125 16.1763 13.2507 15.7003 13.4781C15.6355 12.9629 15.5137 12.4664 15.3416 11.9954L15.3432 11.9947C14.4277 9.4571 12.0729 7.6875 9.375 7.6875C5.90336 7.6875 3 10.6176 3 14.3438C3 18.0699 5.90336 21 9.375 21Z" fill="#E4EFF2"/>
</svg>
