<svg width="918" height="315" viewBox="0 0 918 315" fill="none" xmlns="http://www.w3.org/2000/svg">
<mask id="path-1-inside-1_331_1808" fill="white">
<path fill-rule="evenodd" clip-rule="evenodd" d="M1 12.4264V314H917V0H13.4264L1 12.4264Z"/>
</mask>
<g filter="url(#filter0_i_331_1808)">
<path fill-rule="evenodd" clip-rule="evenodd" d="M1 12.4264V314H917V0H13.4264L1 12.4264Z" fill="url(#paint0_linear_331_1808)"/>
</g>
<path d="M1 314H0V315H1V314ZM1 12.4264L0.292893 11.7193L0 12.0122V12.4264H1ZM917 314V315H918V314H917ZM917 0H918V-1H917V0ZM13.4264 0V-1H13.0122L12.7193 -0.707107L13.4264 0ZM2 314V12.4264H0V314H2ZM917 313H1V315H917V313ZM916 0V314H918V0H916ZM13.4264 1H917V-1H13.4264V1ZM12.7193 -0.707107L0.292893 11.7193L1.70711 13.1335L14.1335 0.707107L12.7193 -0.707107Z" fill="#32BDF9" fill-opacity="0.25" mask="url(#path-1-inside-1_331_1808)"/>
<path d="M1 304V314H11" stroke="#24A9E2" stroke-width="2"/>
<path d="M907 314L917 314L917 304" stroke="#24A9E2" stroke-width="2"/>
<defs>
<filter id="filter0_i_331_1808" x="1" y="0" width="916" height="314" filterUnits="userSpaceOnUse" color-interpolation-filters="sRGB">
<feFlood flood-opacity="0" result="BackgroundImageFix"/>
<feBlend mode="normal" in="SourceGraphic" in2="BackgroundImageFix" result="shape"/>
<feColorMatrix in="SourceAlpha" type="matrix" values="0 0 0 0 0 0 0 0 0 0 0 0 0 0 0 0 0 0 127 0" result="hardAlpha"/>
<feOffset/>
<feGaussianBlur stdDeviation="4"/>
<feComposite in2="hardAlpha" operator="arithmetic" k2="-1" k3="1"/>
<feColorMatrix type="matrix" values="0 0 0 0 0 0 0 0 0 0.76 0 0 0 0 1 0 0 0 0.3 0"/>
<feBlend mode="normal" in2="shape" result="effect1_innerShadow_331_1808"/>
</filter>
<linearGradient id="paint0_linear_331_1808" x1="459" y1="0" x2="459" y2="314" gradientUnits="userSpaceOnUse">
<stop stop-opacity="0.4"/>
<stop offset="0.854167" stop-opacity="0.65"/>
</linearGradient>
</defs>
</svg>
