<svg width="445" height="281" viewBox="0 0 445 281" fill="none" xmlns="http://www.w3.org/2000/svg">
<mask id="path-1-inside-1_281_2029" fill="white">
<path fill-rule="evenodd" clip-rule="evenodd" d="M1 12.4264V280H444V0H13.4264L1 12.4264Z"/>
</mask>
<g filter="url(#filter0_i_281_2029)">
<path fill-rule="evenodd" clip-rule="evenodd" d="M1 12.4264V280H444V0H13.4264L1 12.4264Z" fill="url(#paint0_linear_281_2029)"/>
</g>
<path d="M1 280H0V281H1V280ZM1 12.4264L0.292893 11.7193L0 12.0122V12.4264H1ZM444 280V281H445V280H444ZM444 0H445V-1H444V0ZM13.4264 0V-1H13.0122L12.7193 -0.707107L13.4264 0ZM2 280V12.4264H0V280H2ZM444 279H1V281H444V279ZM443 0V280H445V0H443ZM13.4264 1H444V-1H13.4264V1ZM12.7193 -0.707107L0.292893 11.7193L1.70711 13.1335L14.1335 0.707107L12.7193 -0.707107Z" fill="#32BDF9" fill-opacity="0.25" mask="url(#path-1-inside-1_281_2029)"/>
<path d="M1 270V280H11" stroke="#24A9E2" stroke-width="2"/>
<path d="M434 280L444 280L444 270" stroke="#24A9E2" stroke-width="2"/>
<defs>
<filter id="filter0_i_281_2029" x="1" y="0" width="443" height="280" filterUnits="userSpaceOnUse" color-interpolation-filters="sRGB">
<feFlood flood-opacity="0" result="BackgroundImageFix"/>
<feBlend mode="normal" in="SourceGraphic" in2="BackgroundImageFix" result="shape"/>
<feColorMatrix in="SourceAlpha" type="matrix" values="0 0 0 0 0 0 0 0 0 0 0 0 0 0 0 0 0 0 127 0" result="hardAlpha"/>
<feOffset/>
<feGaussianBlur stdDeviation="4"/>
<feComposite in2="hardAlpha" operator="arithmetic" k2="-1" k3="1"/>
<feColorMatrix type="matrix" values="0 0 0 0 0 0 0 0 0 0.76 0 0 0 0 1 0 0 0 0.3 0"/>
<feBlend mode="normal" in2="shape" result="effect1_innerShadow_281_2029"/>
</filter>
<linearGradient id="paint0_linear_281_2029" x1="222.5" y1="0" x2="222.5" y2="280" gradientUnits="userSpaceOnUse">
<stop stop-opacity="0.4"/>
<stop offset="0.854167" stop-opacity="0.65"/>
</linearGradient>
</defs>
</svg>
