<svg width="450" height="280" viewBox="0 0 450 280" fill="none" xmlns="http://www.w3.org/2000/svg">
<mask id="path-1-inside-1_532_2283" fill="white">
<path fill-rule="evenodd" clip-rule="evenodd" d="M0 12.4264V280H450V0H12.4264L0 12.4264Z"/>
</mask>
<g filter="url(#filter0_i_532_2283)">
<path fill-rule="evenodd" clip-rule="evenodd" d="M0 12.4264V280H450V0H12.4264L0 12.4264Z" fill="url(#paint0_linear_532_2283)"/>
</g>
<path d="M0 280H-1V281H0V280ZM0 12.4264L-0.707107 11.7193L-1 12.0122V12.4264H0ZM450 280V281H451V280H450ZM450 0H451V-1H450V0ZM12.4264 0V-1H12.0122L11.7193 -0.707107L12.4264 0ZM1 280V12.4264H-1V280H1ZM450 279H0V281H450V279ZM449 0V280H451V0H449ZM12.4264 1H450V-1H12.4264V1ZM11.7193 -0.707107L-0.707107 11.7193L0.707107 13.1335L13.1335 0.707107L11.7193 -0.707107Z" fill="#24A9E2" fill-opacity="0.6" mask="url(#path-1-inside-1_532_2283)"/>
<path d="M1 269V279H11" stroke="#24A9E2" stroke-width="2"/>
<path d="M439 279L449 279L449 269" stroke="#24A9E2" stroke-width="2"/>
<defs>
<filter id="filter0_i_532_2283" x="0" y="0" width="450" height="280" filterUnits="userSpaceOnUse" color-interpolation-filters="sRGB">
<feFlood flood-opacity="0" result="BackgroundImageFix"/>
<feBlend mode="normal" in="SourceGraphic" in2="BackgroundImageFix" result="shape"/>
<feColorMatrix in="SourceAlpha" type="matrix" values="0 0 0 0 0 0 0 0 0 0 0 0 0 0 0 0 0 0 127 0" result="hardAlpha"/>
<feOffset/>
<feGaussianBlur stdDeviation="4"/>
<feComposite in2="hardAlpha" operator="arithmetic" k2="-1" k3="1"/>
<feColorMatrix type="matrix" values="0 0 0 0 0 0 0 0 0 0.76 0 0 0 0 1 0 0 0 0.3 0"/>
<feBlend mode="normal" in2="shape" result="effect1_innerShadow_532_2283"/>
</filter>
<linearGradient id="paint0_linear_532_2283" x1="225" y1="0" x2="225" y2="280" gradientUnits="userSpaceOnUse">
<stop stop-opacity="0.4"/>
<stop offset="0.854167" stop-opacity="0.65"/>
</linearGradient>
</defs>
</svg>
