<svg width="117" height="117" viewBox="0 0 117 117" fill="none" xmlns="http://www.w3.org/2000/svg">
<circle cx="58.5" cy="58.5" r="49.5" fill="url(#paint0_radial_331_1716)"/>
<circle cx="58.5" cy="58.5" r="57" transform="rotate(-180 58.5 58.5)" stroke="#0D2F45"/>
<path d="M116 58.5C116 66.051 114.513 73.5281 111.623 80.5043C108.733 87.4805 104.498 93.8193 99.1586 99.1586C93.8193 104.498 87.4805 108.733 80.5043 111.623C73.5281 114.513 66.051 116 58.5 116" stroke="#25BEEE" stroke-width="2"/>
<path d="M1.00001 58.5C1.00001 50.949 2.48729 43.4719 5.37694 36.4957C8.26658 29.5195 12.502 23.1807 17.8414 17.8414C23.1807 12.502 29.5195 8.26658 36.4957 5.37694C43.4719 2.4873 50.949 1.00001 58.5 1.00002" stroke="#25BEEE" stroke-width="2"/>
<defs>
<radialGradient id="paint0_radial_331_1716" cx="0" cy="0" r="1" gradientUnits="userSpaceOnUse" gradientTransform="translate(58.5 57.9677) rotate(90) scale(50.0323)">
<stop offset="0.765625" stop-color="#002648"/>
<stop offset="1" stop-color="#0074A6"/>
</radialGradient>
</defs>
</svg>
