<svg width="1920" height="87" viewBox="0 0 1920 87" fill="none" xmlns="http://www.w3.org/2000/svg">
<g clip-path="url(#clip0_331_2250)">
<rect y="-6" width="511" height="30" fill="url(#paint0_linear_331_2250)"/>
<rect width="408" height="1" transform="matrix(1 0 0 -1 0 24)" fill="url(#paint1_linear_331_2250)"/>
<rect width="511" height="30" transform="matrix(-1 0 0 1 1920 -6)" fill="url(#paint2_linear_331_2250)"/>
<rect x="1920" y="24" width="408" height="1" transform="rotate(180 1920 24)" fill="url(#paint3_linear_331_2250)"/>
<path d="M449.187 65.4998L373.336 -0.500194H598.5V65.4998H449.187Z" fill="#00324F"/>
<path d="M449.187 65.4998L373.336 -0.500194H598.5V65.4998H449.187Z" fill="url(#paint4_radial_331_2250)"/>
<path d="M449.187 65.4998L373.336 -0.500194H598.5V65.4998H449.187Z" stroke="#0D7998"/>
<path d="M433 32L453 49H461L470.5 57.5H486.5" stroke="#096383"/>
<path d="M386 -1.5L424.5 32H460.5" stroke="#096383"/>
<path d="M1471.81 65.4998L1547.66 -0.500194H1322.5V65.4998H1471.81Z" fill="#00324F"/>
<path d="M1471.81 65.4998L1547.66 -0.500194H1322.5V65.4998H1471.81Z" fill="url(#paint5_radial_331_2250)"/>
<path d="M1471.81 65.4998L1547.66 -0.500194H1322.5V65.4998H1471.81Z" stroke="#0D7998"/>
<path d="M1488 32L1468 49H1460L1450.5 57.5H1434.5" stroke="#096383"/>
<path d="M1535 -1.5L1496.5 32H1460.5" stroke="#096383"/>
<path d="M424 -30H1497V-3.05556L1404.81 87H516.191L424 -3.05556L424 -30Z" fill="url(#paint6_linear_331_2250)"/>
<path d="M424.5 -39.5H1496.5V-2.76139L1404.61 86.5H516.394L424.5 -2.76138L424.5 -39.5Z" stroke="#16D5FF"/>
<path d="M431.5 -45.8958L1489.5 -47.4992V-6.4817L1401.8 78.5H519.203L431.5 -6.48174V-45.8958Z" stroke="#16D5FF" stroke-opacity="0.3"/>
<g filter="url(#filter0_d_331_2250)">
<path d="M556.544 22.4L561.776 27.584L556.64 32.816L551.408 27.632L556.544 22.4ZM593.84 33.296H590.672L593.84 38.384H585.344L579.44 28.832H585.92V25.472H571.232V28.832H577.568L571.664 38.384H563.168L566.336 33.296H563.312V23.552H593.84V33.296ZM556.544 33.44L561.776 38.624L556.64 43.856L551.408 38.672L556.544 33.44ZM582.224 40.544H593.648V42.464H582.224V60.8H574.064V42.464H563.456V40.544H574.064V36.848H582.224V40.544ZM553.472 44.48H561.776L558.464 60.8H550.16L553.472 44.48ZM565.424 44.624H573.392L571.328 59.6H563.36L565.424 44.624ZM591.728 44.624L593.648 59.6H585.728L583.808 44.624H591.728ZM627.344 31.184H631.328V33.104H627.344V56.384L631.232 56.144V58.064L614.96 59.168V57.248L619.184 56.96V33.104H615.056V31.184H619.184V22.4H627.344V31.184ZM633.2 22.4H640.88L639.92 60.8H632.24L633.2 22.4ZM658.64 22.4V60.8H650.96V22.4H658.64ZM642.176 23.36H649.376V59.84H642.176V23.36ZM721.52 49.76H705.68V60.8H697.52V49.76H681.68V29.36H697.52V22.4H705.68V29.36H721.52V49.76ZM697.52 47.84V31.28H689.84V47.84H697.52ZM713.36 31.28H705.68V47.84H713.36V31.28ZM753.2 34.208H745.04V29.12H773.6L776.144 22.4H784.592L782.048 29.12H787.28V34.208H779.12L779.168 31.088H753.248L753.2 34.208ZM749.792 27.728L747.728 22.4H756.032L758.144 27.728H749.792ZM762.608 27.728L760.496 22.4H768.8L770.912 27.728H762.608ZM787.76 49.52H770.144V60.8H761.984V49.52H745.04V47.6H761.984V45.632L772.352 38.576H748.064V36.656H784.4V38.576L770.432 47.6H787.76V49.52ZM851.6 23.408V59.792H810.8V23.408H851.6ZM843.44 25.328H818.96V57.872H843.44V25.328ZM819.008 45.2L824.384 39.152L820.016 35.12H828.56L830.816 37.376L834.416 31.376H827.84L827.12 33.776H820.112L821.984 27.392H828.992L828.368 29.456H842.336V31.328L837.536 38.576L843.392 45.2H834.56L831.008 40.88L827.696 45.2H819.008ZM840.416 46.976V50.336L821.792 49.712V46.352L840.416 46.976ZM820.832 51.632L841.52 52.304V55.664L820.832 54.992V51.632ZM916.736 39.584V57.296H908.576V41.504H895.712V60.752H887.552V41.504H875.264V39.584H887.552V28.544H878.144V26.624H887.552V22.544H895.712V26.624H906.416L905.6 22.4H913.904L915.344 29.648H910.88V39.584H916.736ZM895.712 39.584H902.72V28.544H895.712V39.584ZM946.592 37.472H938.672L940.592 22.4H948.512L948.032 26.288H954.224V27.92L953.168 37.472H948.32L949.376 28.208H947.792L946.592 37.472ZM965.072 43.808V48.512H980.768V60.8H957.392V36.032H954.704V25.904H964.4L963.968 22.4H971.504L971.936 25.904H982.928V36.032H979.136V43.808H965.072ZM962.336 27.824V33.248H975.248V27.824H962.336ZM971.504 35.168H965.072V41.888H971.504V35.168ZM950.864 58.88H954.272V60.8H942.704V38.912H950.864V58.88ZM965.072 50.432V58.88H973.088V50.432H965.072ZM1004.62 22.736H1022.48V60.416H1014.61V48.848H1011.73L1011.44 60.416H1003.52L1004.62 22.736ZM1041.92 60.464L1039.23 53.264L1037.98 60.464H1031.79L1034.53 51.152L1031.5 42.608V60.464H1023.92V22.736H1046.53V35.84H1038.8V24.56H1031.5V37.52H1047.25V39.248L1044.13 50.672L1047.68 60.464H1041.92ZM1012.4 24.656L1012.11 34.832H1014.61V24.656H1012.4ZM1014.61 46.928V36.752H1012.06L1011.82 46.928H1014.61ZM1031.5 41.792H1037.17L1039.18 48.128H1039.38L1041.54 39.488L1031.5 39.44V41.792ZM1068.51 41.936L1079.31 35.936L1071.87 31.376H1084.74L1091.65 35.312L1099.33 27.008H1082.1L1080.56 29.696H1071.15L1075.33 22.4H1084.74L1083.2 25.088H1110.61V26.912L1102.11 35.984L1112.34 41.936H1098.66L1090.88 37.76L1083.73 41.936H1068.51ZM1094.38 44.816H1109.98V60.8H1101.82V46.736H1092.94L1082.29 60.8H1072.02L1082.72 46.736H1069.33V44.816H1084.16L1085.89 42.56H1096.11L1094.38 44.816ZM1141.04 33.44H1133.41V31.52H1141.04V22.4H1148.58V31.52H1156.16V33.44H1148.58V42.128H1141.04V33.44ZM1175.07 42.32L1170.8 50.336L1176.99 60.8H1168.35L1166.72 57.92L1165.18 60.8H1156.98L1162.54 50.432L1158.22 42.752V34.928H1164.75V40.112L1166.48 43.04L1168.06 40.064V29.36H1164.99L1164.22 33.44H1157.17L1159.23 22.4H1166.29L1165.33 27.44H1177.57V29.36H1175.07V42.32ZM1135.28 30.32L1134.22 23.36H1139.55L1140.66 30.32H1135.28ZM1154.38 30.32H1149.06L1150.21 23.36H1155.54L1154.38 30.32ZM1133.74 42.128L1135.18 34.64H1140.7L1139.22 42.128H1133.74ZM1149.25 34.64H1154.72L1156.16 42.128H1150.69L1149.25 34.64ZM1153.76 44.864H1156.26V46.784H1153.76V53.408L1150.54 55.232L1156.21 60.8H1146.94L1144.5 58.256L1142.05 60.8H1132.83L1138.5 55.424L1135.28 53.408V46.784H1133.41V44.864H1135.28V42.8H1141.81V44.864H1147.23V42.8H1153.76V44.864ZM1147.23 46.784H1141.81V50.624L1144.64 52.4L1147.23 50.624V46.784ZM1209.01 42.368L1211.17 41.984V43.952L1209.01 44.336V60.8H1198.35V58.88H1200.85V45.872L1198.26 46.352V44.384L1200.85 43.904V30.848H1198.35V28.928H1200.85V22.4H1209.01V28.928H1211.46V30.848H1209.01V42.368ZM1233.39 41.888V46.352H1240.93V60.32H1220.58V46.352H1225.52V41.888H1219.71L1219.14 60.8H1211.46L1212.61 23.216H1241.02V35.504H1233.39V39.968H1241.74V41.888H1233.39ZM1220.24 25.136L1220 33.584H1232.86V25.136H1220.24ZM1225.52 39.968V35.504H1219.9L1219.76 39.968H1225.52ZM1233.06 48.272H1228.45V58.4H1233.06V48.272ZM1273.04 34.064L1271.7 60.368H1263.73L1265.6 22.832H1304.58V34.064H1273.04ZM1273.52 24.272L1273.14 32.144H1296.51V24.272H1273.52ZM1284.03 58.448H1290.66V60.368L1275.97 60.416V47.936H1273.18V46.016H1278.27V40.688H1274.14V38.768H1278.27V35.6H1286.34V38.768H1292.29V35.6H1300.35V38.768H1304.48V40.688H1300.35V46.016H1305.44V47.936H1284.03V58.448ZM1286.34 46.016H1292.29V40.688H1286.34V46.016ZM1305.92 60.368H1296.22L1286.1 49.76H1295.74L1299.15 53.312L1304.91 52.112V54.128L1300.78 54.992L1305.92 60.368ZM1367.26 24.896H1331.65V22.976H1367.26V24.896ZM1371.49 34.88V36.8H1354.02V60.224H1345.86V36.8H1327.76V34.88H1371.49ZM1332.75 40.304H1340.86L1337.41 58.832H1329.3L1332.75 40.304ZM1366.16 40.304L1369.62 58.832H1361.5L1358.05 40.304H1366.16Z" fill="url(#paint7_linear_331_2250)" shape-rendering="crispEdges"/>
</g>
<rect x="529" y="23" width="3" height="3" rx="1.5" fill="url(#paint8_linear_331_2250)"/>
<rect x="529" y="30" width="3" height="3" rx="1.5" fill="url(#paint9_linear_331_2250)"/>
<rect x="529" y="37" width="3" height="3" rx="1.5" fill="url(#paint10_linear_331_2250)"/>
<rect x="529" y="44" width="3" height="3" rx="1.5" fill="url(#paint11_linear_331_2250)"/>
<rect x="529" y="51" width="3" height="3" rx="1.5" fill="url(#paint12_linear_331_2250)"/>
<rect x="529" y="58" width="3" height="3" rx="1.5" fill="url(#paint13_linear_331_2250)"/>
<rect x="522" y="23" width="3" height="3" rx="1.5" fill="url(#paint14_linear_331_2250)"/>
<rect x="522" y="30" width="3" height="3" rx="1.5" fill="url(#paint15_linear_331_2250)"/>
<rect x="522" y="37" width="3" height="3" rx="1.5" fill="url(#paint16_linear_331_2250)"/>
<rect x="522" y="44" width="3" height="3" rx="1.5" fill="url(#paint17_linear_331_2250)"/>
<rect x="522" y="51" width="3" height="3" rx="1.5" fill="url(#paint18_linear_331_2250)"/>
<rect x="522" y="58" width="3" height="3" rx="1.5" fill="url(#paint19_linear_331_2250)"/>
<rect x="515" y="23" width="3" height="3" rx="1.5" fill="url(#paint20_linear_331_2250)"/>
<rect x="515" y="30" width="3" height="3" rx="1.5" fill="url(#paint21_linear_331_2250)"/>
<rect x="515" y="37" width="3" height="3" rx="1.5" fill="url(#paint22_linear_331_2250)"/>
<rect x="515" y="44" width="3" height="3" rx="1.5" fill="url(#paint23_linear_331_2250)"/>
<rect x="515" y="51" width="3" height="3" rx="1.5" fill="url(#paint24_linear_331_2250)"/>
<rect x="515" y="58" width="3" height="3" rx="1.5" fill="url(#paint25_linear_331_2250)"/>
<rect x="508" y="23" width="3" height="3" rx="1.5" fill="url(#paint26_linear_331_2250)"/>
<rect x="508" y="30" width="3" height="3" rx="1.5" fill="url(#paint27_linear_331_2250)"/>
<rect x="508" y="37" width="3" height="3" rx="1.5" fill="url(#paint28_linear_331_2250)"/>
<rect x="508" y="44" width="3" height="3" rx="1.5" fill="url(#paint29_linear_331_2250)"/>
<rect x="508" y="51" width="3" height="3" rx="1.5" fill="url(#paint30_linear_331_2250)"/>
<rect x="501" y="23" width="3" height="3" rx="1.5" fill="url(#paint31_linear_331_2250)"/>
<rect x="501" y="30" width="3" height="3" rx="1.5" fill="url(#paint32_linear_331_2250)"/>
<rect x="501" y="37" width="3" height="3" rx="1.5" fill="url(#paint33_linear_331_2250)"/>
<rect x="501" y="44" width="3" height="3" rx="1.5" fill="url(#paint34_linear_331_2250)"/>
<rect x="494" y="23" width="3" height="3" rx="1.5" fill="url(#paint35_linear_331_2250)"/>
<rect x="494" y="30" width="3" height="3" rx="1.5" fill="url(#paint36_linear_331_2250)"/>
<rect x="494" y="37" width="3" height="3" rx="1.5" fill="url(#paint37_linear_331_2250)"/>
<rect x="487" y="23" width="3" height="3" rx="1.5" fill="url(#paint38_linear_331_2250)"/>
<rect x="487" y="30" width="3" height="3" rx="1.5" fill="url(#paint39_linear_331_2250)"/>
<rect x="480" y="23" width="3" height="3" rx="1.5" fill="url(#paint40_linear_331_2250)"/>
<rect width="3" height="3" rx="1.5" transform="matrix(-1 0 0 1 1392 23)" fill="url(#paint41_linear_331_2250)"/>
<rect width="3" height="3" rx="1.5" transform="matrix(-1 0 0 1 1392 30)" fill="url(#paint42_linear_331_2250)"/>
<rect width="3" height="3" rx="1.5" transform="matrix(-1 0 0 1 1392 37)" fill="url(#paint43_linear_331_2250)"/>
<rect width="3" height="3" rx="1.5" transform="matrix(-1 0 0 1 1392 44)" fill="url(#paint44_linear_331_2250)"/>
<rect width="3" height="3" rx="1.5" transform="matrix(-1 0 0 1 1392 51)" fill="url(#paint45_linear_331_2250)"/>
<rect width="3" height="3" rx="1.5" transform="matrix(-1 0 0 1 1392 58)" fill="url(#paint46_linear_331_2250)"/>
<rect width="3" height="3" rx="1.5" transform="matrix(-1 0 0 1 1399 23)" fill="url(#paint47_linear_331_2250)"/>
<rect width="3" height="3" rx="1.5" transform="matrix(-1 0 0 1 1399 30)" fill="url(#paint48_linear_331_2250)"/>
<rect width="3" height="3" rx="1.5" transform="matrix(-1 0 0 1 1399 37)" fill="url(#paint49_linear_331_2250)"/>
<rect width="3" height="3" rx="1.5" transform="matrix(-1 0 0 1 1399 44)" fill="url(#paint50_linear_331_2250)"/>
<rect width="3" height="3" rx="1.5" transform="matrix(-1 0 0 1 1399 51)" fill="url(#paint51_linear_331_2250)"/>
<rect width="3" height="3" rx="1.5" transform="matrix(-1 0 0 1 1399 58)" fill="url(#paint52_linear_331_2250)"/>
<rect width="3" height="3" rx="1.5" transform="matrix(-1 0 0 1 1406 23)" fill="url(#paint53_linear_331_2250)"/>
<rect width="3" height="3" rx="1.5" transform="matrix(-1 0 0 1 1406 30)" fill="url(#paint54_linear_331_2250)"/>
<rect width="3" height="3" rx="1.5" transform="matrix(-1 0 0 1 1406 37)" fill="url(#paint55_linear_331_2250)"/>
<rect width="3" height="3" rx="1.5" transform="matrix(-1 0 0 1 1406 44)" fill="url(#paint56_linear_331_2250)"/>
<rect width="3" height="3" rx="1.5" transform="matrix(-1 0 0 1 1406 51)" fill="url(#paint57_linear_331_2250)"/>
<rect width="3" height="3" rx="1.5" transform="matrix(-1 0 0 1 1406 58)" fill="url(#paint58_linear_331_2250)"/>
<rect width="3" height="3" rx="1.5" transform="matrix(-1 0 0 1 1413 23)" fill="url(#paint59_linear_331_2250)"/>
<rect width="3" height="3" rx="1.5" transform="matrix(-1 0 0 1 1413 30)" fill="url(#paint60_linear_331_2250)"/>
<rect width="3" height="3" rx="1.5" transform="matrix(-1 0 0 1 1413 37)" fill="url(#paint61_linear_331_2250)"/>
<rect width="3" height="3" rx="1.5" transform="matrix(-1 0 0 1 1413 44)" fill="url(#paint62_linear_331_2250)"/>
<rect width="3" height="3" rx="1.5" transform="matrix(-1 0 0 1 1413 51)" fill="url(#paint63_linear_331_2250)"/>
<rect width="3" height="3" rx="1.5" transform="matrix(-1 0 0 1 1420 23)" fill="url(#paint64_linear_331_2250)"/>
<rect width="3" height="3" rx="1.5" transform="matrix(-1 0 0 1 1420 30)" fill="url(#paint65_linear_331_2250)"/>
<rect width="3" height="3" rx="1.5" transform="matrix(-1 0 0 1 1420 37)" fill="url(#paint66_linear_331_2250)"/>
<rect width="3" height="3" rx="1.5" transform="matrix(-1 0 0 1 1420 44)" fill="url(#paint67_linear_331_2250)"/>
<rect width="3" height="3" rx="1.5" transform="matrix(-1 0 0 1 1427 23)" fill="url(#paint68_linear_331_2250)"/>
<rect width="3" height="3" rx="1.5" transform="matrix(-1 0 0 1 1427 30)" fill="url(#paint69_linear_331_2250)"/>
<rect width="3" height="3" rx="1.5" transform="matrix(-1 0 0 1 1427 37)" fill="url(#paint70_linear_331_2250)"/>
<rect width="3" height="3" rx="1.5" transform="matrix(-1 0 0 1 1434 23)" fill="url(#paint71_linear_331_2250)"/>
<rect width="3" height="3" rx="1.5" transform="matrix(-1 0 0 1 1434 30)" fill="url(#paint72_linear_331_2250)"/>
<rect width="3" height="3" rx="1.5" transform="matrix(-1 0 0 1 1441 23)" fill="url(#paint73_linear_331_2250)"/>
</g>
<defs>
<filter id="filter0_d_331_2250" x="544.16" y="21.3999" width="833.328" height="50.4001" filterUnits="userSpaceOnUse" color-interpolation-filters="sRGB">
<feFlood flood-opacity="0" result="BackgroundImageFix"/>
<feColorMatrix in="SourceAlpha" type="matrix" values="0 0 0 0 0 0 0 0 0 0 0 0 0 0 0 0 0 0 127 0" result="hardAlpha"/>
<feOffset dy="5"/>
<feGaussianBlur stdDeviation="3"/>
<feComposite in2="hardAlpha" operator="out"/>
<feColorMatrix type="matrix" values="0 0 0 0 0 0 0 0 0 0 0 0 0 0 0 0 0 0 0.3 0"/>
<feBlend mode="normal" in2="BackgroundImageFix" result="effect1_dropShadow_331_2250"/>
<feBlend mode="normal" in="SourceGraphic" in2="effect1_dropShadow_331_2250" result="shape"/>
</filter>
<linearGradient id="paint0_linear_331_2250" x1="374" y1="23.9999" x2="9.99999" y2="23.9999" gradientUnits="userSpaceOnUse">
<stop stop-color="#081724"/>
<stop offset="1" stop-color="#081724" stop-opacity="0"/>
</linearGradient>
<linearGradient id="paint1_linear_331_2250" x1="0" y1="0.99999" x2="401.5" y2="0.99999" gradientUnits="userSpaceOnUse">
<stop stop-color="#0D7998" stop-opacity="0"/>
<stop offset="1" stop-color="#0D7998"/>
</linearGradient>
<linearGradient id="paint2_linear_331_2250" x1="374" y1="29.9999" x2="9.99999" y2="29.9999" gradientUnits="userSpaceOnUse">
<stop stop-color="#081724"/>
<stop offset="1" stop-color="#081724" stop-opacity="0"/>
</linearGradient>
<linearGradient id="paint3_linear_331_2250" x1="1920" y1="25" x2="2321.5" y2="25" gradientUnits="userSpaceOnUse">
<stop stop-color="#0D7998" stop-opacity="0"/>
<stop offset="1" stop-color="#0D7998"/>
</linearGradient>
<radialGradient id="paint4_radial_331_2250" cx="0" cy="0" r="1" gradientUnits="userSpaceOnUse" gradientTransform="translate(469.5 19.6328) rotate(107.354) scale(58.6707 198.78)">
<stop offset="0.442708" stop-color="#16D5FF" stop-opacity="0"/>
<stop offset="1" stop-color="#16D5FF" stop-opacity="0.45"/>
</radialGradient>
<radialGradient id="paint5_radial_331_2250" cx="0" cy="0" r="1" gradientUnits="userSpaceOnUse" gradientTransform="translate(1451.5 19.6328) rotate(72.646) scale(58.6707 198.78)">
<stop offset="0.442708" stop-color="#16D5FF" stop-opacity="0"/>
<stop offset="1" stop-color="#16D5FF" stop-opacity="0.45"/>
</radialGradient>
<linearGradient id="paint6_linear_331_2250" x1="960" y1="-10" x2="960" y2="87" gradientUnits="userSpaceOnUse">
<stop offset="0.0364583" stop-color="#065374"/>
<stop offset="0.770833" stop-color="#073650"/>
<stop offset="1" stop-color="#0C6986"/>
</linearGradient>
<linearGradient id="paint7_linear_331_2250" x1="961" y1="20.8889" x2="961" y2="66" gradientUnits="userSpaceOnUse">
<stop offset="0.505208" stop-color="white"/>
<stop offset="1" stop-color="white" stop-opacity="0"/>
</linearGradient>
<linearGradient id="paint8_linear_331_2250" x1="532.26" y1="24.1447" x2="529.202" y2="24.1658" gradientUnits="userSpaceOnUse">
<stop stop-color="#0D7998"/>
<stop offset="1" stop-color="#0D7998" stop-opacity="0"/>
</linearGradient>
<linearGradient id="paint9_linear_331_2250" x1="532.26" y1="31.1447" x2="529.202" y2="31.1658" gradientUnits="userSpaceOnUse">
<stop stop-color="#0D7998"/>
<stop offset="1" stop-color="#0D7998" stop-opacity="0"/>
</linearGradient>
<linearGradient id="paint10_linear_331_2250" x1="532.26" y1="38.1447" x2="529.202" y2="38.1658" gradientUnits="userSpaceOnUse">
<stop stop-color="#0D7998"/>
<stop offset="1" stop-color="#0D7998" stop-opacity="0"/>
</linearGradient>
<linearGradient id="paint11_linear_331_2250" x1="532.26" y1="45.1447" x2="529.202" y2="45.1658" gradientUnits="userSpaceOnUse">
<stop stop-color="#0D7998"/>
<stop offset="1" stop-color="#0D7998" stop-opacity="0"/>
</linearGradient>
<linearGradient id="paint12_linear_331_2250" x1="532.26" y1="52.1447" x2="529.202" y2="52.1658" gradientUnits="userSpaceOnUse">
<stop stop-color="#0D7998"/>
<stop offset="1" stop-color="#0D7998" stop-opacity="0"/>
</linearGradient>
<linearGradient id="paint13_linear_331_2250" x1="532.26" y1="59.1447" x2="529.202" y2="59.1658" gradientUnits="userSpaceOnUse">
<stop stop-color="#0D7998"/>
<stop offset="1" stop-color="#0D7998" stop-opacity="0"/>
</linearGradient>
<linearGradient id="paint14_linear_331_2250" x1="525.26" y1="24.1447" x2="522.202" y2="24.1658" gradientUnits="userSpaceOnUse">
<stop stop-color="#0D7998"/>
<stop offset="1" stop-color="#0D7998" stop-opacity="0"/>
</linearGradient>
<linearGradient id="paint15_linear_331_2250" x1="525.26" y1="31.1447" x2="522.202" y2="31.1658" gradientUnits="userSpaceOnUse">
<stop stop-color="#0D7998"/>
<stop offset="1" stop-color="#0D7998" stop-opacity="0"/>
</linearGradient>
<linearGradient id="paint16_linear_331_2250" x1="525.26" y1="38.1447" x2="522.202" y2="38.1658" gradientUnits="userSpaceOnUse">
<stop stop-color="#0D7998"/>
<stop offset="1" stop-color="#0D7998" stop-opacity="0"/>
</linearGradient>
<linearGradient id="paint17_linear_331_2250" x1="525.26" y1="45.1447" x2="522.202" y2="45.1658" gradientUnits="userSpaceOnUse">
<stop stop-color="#0D7998"/>
<stop offset="1" stop-color="#0D7998" stop-opacity="0"/>
</linearGradient>
<linearGradient id="paint18_linear_331_2250" x1="525.26" y1="52.1447" x2="522.202" y2="52.1658" gradientUnits="userSpaceOnUse">
<stop stop-color="#0D7998"/>
<stop offset="1" stop-color="#0D7998" stop-opacity="0"/>
</linearGradient>
<linearGradient id="paint19_linear_331_2250" x1="525.26" y1="59.1447" x2="522.202" y2="59.1658" gradientUnits="userSpaceOnUse">
<stop stop-color="#0D7998"/>
<stop offset="1" stop-color="#0D7998" stop-opacity="0"/>
</linearGradient>
<linearGradient id="paint20_linear_331_2250" x1="518.26" y1="24.1447" x2="515.202" y2="24.1658" gradientUnits="userSpaceOnUse">
<stop stop-color="#0D7998"/>
<stop offset="1" stop-color="#0D7998" stop-opacity="0"/>
</linearGradient>
<linearGradient id="paint21_linear_331_2250" x1="518.26" y1="31.1447" x2="515.202" y2="31.1658" gradientUnits="userSpaceOnUse">
<stop stop-color="#0D7998"/>
<stop offset="1" stop-color="#0D7998" stop-opacity="0"/>
</linearGradient>
<linearGradient id="paint22_linear_331_2250" x1="518.26" y1="38.1447" x2="515.202" y2="38.1658" gradientUnits="userSpaceOnUse">
<stop stop-color="#0D7998"/>
<stop offset="1" stop-color="#0D7998" stop-opacity="0"/>
</linearGradient>
<linearGradient id="paint23_linear_331_2250" x1="518.26" y1="45.1447" x2="515.202" y2="45.1658" gradientUnits="userSpaceOnUse">
<stop stop-color="#0D7998"/>
<stop offset="1" stop-color="#0D7998" stop-opacity="0"/>
</linearGradient>
<linearGradient id="paint24_linear_331_2250" x1="518.26" y1="52.1447" x2="515.202" y2="52.1658" gradientUnits="userSpaceOnUse">
<stop stop-color="#0D7998"/>
<stop offset="1" stop-color="#0D7998" stop-opacity="0"/>
</linearGradient>
<linearGradient id="paint25_linear_331_2250" x1="518.26" y1="59.1447" x2="515.202" y2="59.1658" gradientUnits="userSpaceOnUse">
<stop stop-color="#0D7998"/>
<stop offset="1" stop-color="#0D7998" stop-opacity="0"/>
</linearGradient>
<linearGradient id="paint26_linear_331_2250" x1="511.26" y1="24.1447" x2="508.202" y2="24.1658" gradientUnits="userSpaceOnUse">
<stop stop-color="#0D7998"/>
<stop offset="1" stop-color="#0D7998" stop-opacity="0"/>
</linearGradient>
<linearGradient id="paint27_linear_331_2250" x1="511.26" y1="31.1447" x2="508.202" y2="31.1658" gradientUnits="userSpaceOnUse">
<stop stop-color="#0D7998"/>
<stop offset="1" stop-color="#0D7998" stop-opacity="0"/>
</linearGradient>
<linearGradient id="paint28_linear_331_2250" x1="511.26" y1="38.1447" x2="508.202" y2="38.1658" gradientUnits="userSpaceOnUse">
<stop stop-color="#0D7998"/>
<stop offset="1" stop-color="#0D7998" stop-opacity="0"/>
</linearGradient>
<linearGradient id="paint29_linear_331_2250" x1="511.26" y1="45.1447" x2="508.202" y2="45.1658" gradientUnits="userSpaceOnUse">
<stop stop-color="#0D7998"/>
<stop offset="1" stop-color="#0D7998" stop-opacity="0"/>
</linearGradient>
<linearGradient id="paint30_linear_331_2250" x1="511.26" y1="52.1447" x2="508.202" y2="52.1658" gradientUnits="userSpaceOnUse">
<stop stop-color="#0D7998"/>
<stop offset="1" stop-color="#0D7998" stop-opacity="0"/>
</linearGradient>
<linearGradient id="paint31_linear_331_2250" x1="504.26" y1="24.1447" x2="501.202" y2="24.1658" gradientUnits="userSpaceOnUse">
<stop stop-color="#0D7998"/>
<stop offset="1" stop-color="#0D7998" stop-opacity="0"/>
</linearGradient>
<linearGradient id="paint32_linear_331_2250" x1="504.26" y1="31.1447" x2="501.202" y2="31.1658" gradientUnits="userSpaceOnUse">
<stop stop-color="#0D7998"/>
<stop offset="1" stop-color="#0D7998" stop-opacity="0"/>
</linearGradient>
<linearGradient id="paint33_linear_331_2250" x1="504.26" y1="38.1447" x2="501.202" y2="38.1658" gradientUnits="userSpaceOnUse">
<stop stop-color="#0D7998"/>
<stop offset="1" stop-color="#0D7998" stop-opacity="0"/>
</linearGradient>
<linearGradient id="paint34_linear_331_2250" x1="504.26" y1="45.1447" x2="501.202" y2="45.1658" gradientUnits="userSpaceOnUse">
<stop stop-color="#0D7998"/>
<stop offset="1" stop-color="#0D7998" stop-opacity="0"/>
</linearGradient>
<linearGradient id="paint35_linear_331_2250" x1="497.26" y1="24.1447" x2="494.202" y2="24.1658" gradientUnits="userSpaceOnUse">
<stop stop-color="#0D7998"/>
<stop offset="1" stop-color="#0D7998" stop-opacity="0"/>
</linearGradient>
<linearGradient id="paint36_linear_331_2250" x1="497.26" y1="31.1447" x2="494.202" y2="31.1658" gradientUnits="userSpaceOnUse">
<stop stop-color="#0D7998"/>
<stop offset="1" stop-color="#0D7998" stop-opacity="0"/>
</linearGradient>
<linearGradient id="paint37_linear_331_2250" x1="497.26" y1="38.1447" x2="494.202" y2="38.1658" gradientUnits="userSpaceOnUse">
<stop stop-color="#0D7998"/>
<stop offset="1" stop-color="#0D7998" stop-opacity="0"/>
</linearGradient>
<linearGradient id="paint38_linear_331_2250" x1="490.26" y1="24.1447" x2="487.202" y2="24.1658" gradientUnits="userSpaceOnUse">
<stop stop-color="#0D7998"/>
<stop offset="1" stop-color="#0D7998" stop-opacity="0"/>
</linearGradient>
<linearGradient id="paint39_linear_331_2250" x1="490.26" y1="31.1447" x2="487.202" y2="31.1658" gradientUnits="userSpaceOnUse">
<stop stop-color="#0D7998"/>
<stop offset="1" stop-color="#0D7998" stop-opacity="0"/>
</linearGradient>
<linearGradient id="paint40_linear_331_2250" x1="483.26" y1="24.1447" x2="480.202" y2="24.1658" gradientUnits="userSpaceOnUse">
<stop stop-color="#0D7998"/>
<stop offset="1" stop-color="#0D7998" stop-opacity="0"/>
</linearGradient>
<linearGradient id="paint41_linear_331_2250" x1="3.25962" y1="1.14474" x2="0.201796" y2="1.16582" gradientUnits="userSpaceOnUse">
<stop stop-color="#0D7998"/>
<stop offset="1" stop-color="#0D7998" stop-opacity="0"/>
</linearGradient>
<linearGradient id="paint42_linear_331_2250" x1="3.25962" y1="1.14474" x2="0.201796" y2="1.16582" gradientUnits="userSpaceOnUse">
<stop stop-color="#0D7998"/>
<stop offset="1" stop-color="#0D7998" stop-opacity="0"/>
</linearGradient>
<linearGradient id="paint43_linear_331_2250" x1="3.25962" y1="1.14474" x2="0.201796" y2="1.16582" gradientUnits="userSpaceOnUse">
<stop stop-color="#0D7998"/>
<stop offset="1" stop-color="#0D7998" stop-opacity="0"/>
</linearGradient>
<linearGradient id="paint44_linear_331_2250" x1="3.25962" y1="1.14474" x2="0.201796" y2="1.16582" gradientUnits="userSpaceOnUse">
<stop stop-color="#0D7998"/>
<stop offset="1" stop-color="#0D7998" stop-opacity="0"/>
</linearGradient>
<linearGradient id="paint45_linear_331_2250" x1="3.25962" y1="1.14474" x2="0.201796" y2="1.16582" gradientUnits="userSpaceOnUse">
<stop stop-color="#0D7998"/>
<stop offset="1" stop-color="#0D7998" stop-opacity="0"/>
</linearGradient>
<linearGradient id="paint46_linear_331_2250" x1="3.25962" y1="1.14474" x2="0.201796" y2="1.16582" gradientUnits="userSpaceOnUse">
<stop stop-color="#0D7998"/>
<stop offset="1" stop-color="#0D7998" stop-opacity="0"/>
</linearGradient>
<linearGradient id="paint47_linear_331_2250" x1="3.25962" y1="1.14474" x2="0.201796" y2="1.16582" gradientUnits="userSpaceOnUse">
<stop stop-color="#0D7998"/>
<stop offset="1" stop-color="#0D7998" stop-opacity="0"/>
</linearGradient>
<linearGradient id="paint48_linear_331_2250" x1="3.25962" y1="1.14474" x2="0.201796" y2="1.16582" gradientUnits="userSpaceOnUse">
<stop stop-color="#0D7998"/>
<stop offset="1" stop-color="#0D7998" stop-opacity="0"/>
</linearGradient>
<linearGradient id="paint49_linear_331_2250" x1="3.25962" y1="1.14474" x2="0.201796" y2="1.16582" gradientUnits="userSpaceOnUse">
<stop stop-color="#0D7998"/>
<stop offset="1" stop-color="#0D7998" stop-opacity="0"/>
</linearGradient>
<linearGradient id="paint50_linear_331_2250" x1="3.25962" y1="1.14474" x2="0.201796" y2="1.16582" gradientUnits="userSpaceOnUse">
<stop stop-color="#0D7998"/>
<stop offset="1" stop-color="#0D7998" stop-opacity="0"/>
</linearGradient>
<linearGradient id="paint51_linear_331_2250" x1="3.25962" y1="1.14474" x2="0.201796" y2="1.16582" gradientUnits="userSpaceOnUse">
<stop stop-color="#0D7998"/>
<stop offset="1" stop-color="#0D7998" stop-opacity="0"/>
</linearGradient>
<linearGradient id="paint52_linear_331_2250" x1="3.25962" y1="1.14474" x2="0.201796" y2="1.16582" gradientUnits="userSpaceOnUse">
<stop stop-color="#0D7998"/>
<stop offset="1" stop-color="#0D7998" stop-opacity="0"/>
</linearGradient>
<linearGradient id="paint53_linear_331_2250" x1="3.25962" y1="1.14474" x2="0.201796" y2="1.16582" gradientUnits="userSpaceOnUse">
<stop stop-color="#0D7998"/>
<stop offset="1" stop-color="#0D7998" stop-opacity="0"/>
</linearGradient>
<linearGradient id="paint54_linear_331_2250" x1="3.25962" y1="1.14474" x2="0.201796" y2="1.16582" gradientUnits="userSpaceOnUse">
<stop stop-color="#0D7998"/>
<stop offset="1" stop-color="#0D7998" stop-opacity="0"/>
</linearGradient>
<linearGradient id="paint55_linear_331_2250" x1="3.25962" y1="1.14474" x2="0.201796" y2="1.16582" gradientUnits="userSpaceOnUse">
<stop stop-color="#0D7998"/>
<stop offset="1" stop-color="#0D7998" stop-opacity="0"/>
</linearGradient>
<linearGradient id="paint56_linear_331_2250" x1="3.25962" y1="1.14474" x2="0.201796" y2="1.16582" gradientUnits="userSpaceOnUse">
<stop stop-color="#0D7998"/>
<stop offset="1" stop-color="#0D7998" stop-opacity="0"/>
</linearGradient>
<linearGradient id="paint57_linear_331_2250" x1="3.25962" y1="1.14474" x2="0.201796" y2="1.16582" gradientUnits="userSpaceOnUse">
<stop stop-color="#0D7998"/>
<stop offset="1" stop-color="#0D7998" stop-opacity="0"/>
</linearGradient>
<linearGradient id="paint58_linear_331_2250" x1="3.25962" y1="1.14474" x2="0.201796" y2="1.16582" gradientUnits="userSpaceOnUse">
<stop stop-color="#0D7998"/>
<stop offset="1" stop-color="#0D7998" stop-opacity="0"/>
</linearGradient>
<linearGradient id="paint59_linear_331_2250" x1="3.25962" y1="1.14474" x2="0.201796" y2="1.16582" gradientUnits="userSpaceOnUse">
<stop stop-color="#0D7998"/>
<stop offset="1" stop-color="#0D7998" stop-opacity="0"/>
</linearGradient>
<linearGradient id="paint60_linear_331_2250" x1="3.25962" y1="1.14474" x2="0.201796" y2="1.16582" gradientUnits="userSpaceOnUse">
<stop stop-color="#0D7998"/>
<stop offset="1" stop-color="#0D7998" stop-opacity="0"/>
</linearGradient>
<linearGradient id="paint61_linear_331_2250" x1="3.25962" y1="1.14474" x2="0.201796" y2="1.16582" gradientUnits="userSpaceOnUse">
<stop stop-color="#0D7998"/>
<stop offset="1" stop-color="#0D7998" stop-opacity="0"/>
</linearGradient>
<linearGradient id="paint62_linear_331_2250" x1="3.25962" y1="1.14474" x2="0.201796" y2="1.16582" gradientUnits="userSpaceOnUse">
<stop stop-color="#0D7998"/>
<stop offset="1" stop-color="#0D7998" stop-opacity="0"/>
</linearGradient>
<linearGradient id="paint63_linear_331_2250" x1="3.25962" y1="1.14474" x2="0.201796" y2="1.16582" gradientUnits="userSpaceOnUse">
<stop stop-color="#0D7998"/>
<stop offset="1" stop-color="#0D7998" stop-opacity="0"/>
</linearGradient>
<linearGradient id="paint64_linear_331_2250" x1="3.25962" y1="1.14474" x2="0.201796" y2="1.16582" gradientUnits="userSpaceOnUse">
<stop stop-color="#0D7998"/>
<stop offset="1" stop-color="#0D7998" stop-opacity="0"/>
</linearGradient>
<linearGradient id="paint65_linear_331_2250" x1="3.25962" y1="1.14474" x2="0.201796" y2="1.16582" gradientUnits="userSpaceOnUse">
<stop stop-color="#0D7998"/>
<stop offset="1" stop-color="#0D7998" stop-opacity="0"/>
</linearGradient>
<linearGradient id="paint66_linear_331_2250" x1="3.25962" y1="1.14474" x2="0.201796" y2="1.16582" gradientUnits="userSpaceOnUse">
<stop stop-color="#0D7998"/>
<stop offset="1" stop-color="#0D7998" stop-opacity="0"/>
</linearGradient>
<linearGradient id="paint67_linear_331_2250" x1="3.25962" y1="1.14474" x2="0.201796" y2="1.16582" gradientUnits="userSpaceOnUse">
<stop stop-color="#0D7998"/>
<stop offset="1" stop-color="#0D7998" stop-opacity="0"/>
</linearGradient>
<linearGradient id="paint68_linear_331_2250" x1="3.25962" y1="1.14474" x2="0.201796" y2="1.16582" gradientUnits="userSpaceOnUse">
<stop stop-color="#0D7998"/>
<stop offset="1" stop-color="#0D7998" stop-opacity="0"/>
</linearGradient>
<linearGradient id="paint69_linear_331_2250" x1="3.25962" y1="1.14474" x2="0.201796" y2="1.16582" gradientUnits="userSpaceOnUse">
<stop stop-color="#0D7998"/>
<stop offset="1" stop-color="#0D7998" stop-opacity="0"/>
</linearGradient>
<linearGradient id="paint70_linear_331_2250" x1="3.25962" y1="1.14474" x2="0.201796" y2="1.16582" gradientUnits="userSpaceOnUse">
<stop stop-color="#0D7998"/>
<stop offset="1" stop-color="#0D7998" stop-opacity="0"/>
</linearGradient>
<linearGradient id="paint71_linear_331_2250" x1="3.25962" y1="1.14474" x2="0.201796" y2="1.16582" gradientUnits="userSpaceOnUse">
<stop stop-color="#0D7998"/>
<stop offset="1" stop-color="#0D7998" stop-opacity="0"/>
</linearGradient>
<linearGradient id="paint72_linear_331_2250" x1="3.25962" y1="1.14474" x2="0.201796" y2="1.16582" gradientUnits="userSpaceOnUse">
<stop stop-color="#0D7998"/>
<stop offset="1" stop-color="#0D7998" stop-opacity="0"/>
</linearGradient>
<linearGradient id="paint73_linear_331_2250" x1="3.25962" y1="1.14474" x2="0.201796" y2="1.16582" gradientUnits="userSpaceOnUse">
<stop stop-color="#0D7998"/>
<stop offset="1" stop-color="#0D7998" stop-opacity="0"/>
</linearGradient>
<clipPath id="clip0_331_2250">
<rect width="1920" height="87" fill="white"/>
</clipPath>
</defs>
</svg>
