<svg width="81" height="79" viewBox="0 0 81 79" fill="none" xmlns="http://www.w3.org/2000/svg">
<g filter="url(#filter0_b_281_1419)">
<ellipse cx="40.1902" cy="39.1163" rx="40.1902" ry="39.1163" fill="black" fill-opacity="0.3"/>
<path d="M78.8804 39.1163C78.8804 59.8532 61.5968 76.7327 40.1902 76.7327C18.7836 76.7327 1.5 59.8532 1.5 39.1163C1.5 18.3794 18.7836 1.5 40.1902 1.5C61.5968 1.5 78.8804 18.3794 78.8804 39.1163Z" stroke="white" stroke-opacity="0.6" stroke-width="3"/>
</g>
<path d="M57.7441 37.0835C59.5187 38.2716 59.5187 40.881 57.7441 42.0692L32.8022 58.7684C30.8089 60.103 28.1332 58.6743 28.1332 56.2756L28.1332 22.8771C28.1332 20.4783 30.8089 19.0497 32.8022 20.3842L57.7441 37.0835Z" fill="white"/>
<defs>
<filter id="filter0_b_281_1419" x="-10" y="-10" width="100.38" height="98.2327" filterUnits="userSpaceOnUse" color-interpolation-filters="sRGB">
<feFlood flood-opacity="0" result="BackgroundImageFix"/>
<feGaussianBlur in="BackgroundImageFix" stdDeviation="5"/>
<feComposite in2="SourceAlpha" operator="in" result="effect1_backgroundBlur_281_1419"/>
<feBlend mode="normal" in="SourceGraphic" in2="effect1_backgroundBlur_281_1419" result="shape"/>
</filter>
</defs>
</svg>
