<svg width="1920" height="117" viewBox="0 0 1920 117" fill="none" xmlns="http://www.w3.org/2000/svg">
<rect y="10" width="539" height="21" fill="url(#paint0_linear_331_2509)"/>
<rect width="539" height="21" transform="matrix(-1 0 0 1 1920 10)" fill="url(#paint1_linear_331_2509)"/>
<g filter="url(#filter0_d_331_2509)">
<path fill-rule="evenodd" clip-rule="evenodd" d="M1408 10H512L552 87H927L932 82H1052L1057 87H1363L1408 10Z" fill="url(#paint2_linear_331_2509)"/>
</g>
<path d="M1389.61 86.9747L1378 86.9747L1417.45 18.5306L1429.07 18.5306L1389.61 86.9747Z" fill="url(#paint3_linear_331_2509)"/>
<path d="M527.451 86.9747L539.066 86.9747L499.615 18.5306L488 18.5306L527.451 86.9747Z" fill="url(#paint4_linear_331_2509)"/>
<path d="M0 23H476L521 104H1397L1443 23H1920" stroke="url(#paint5_linear_331_2509)" stroke-width="2"/>
<g filter="url(#filter1_d_331_2509)">
<path d="M643.16 47L642.92 48.96C642.653 50.8266 641.747 52.2133 640.2 53.12H640.16L640.32 65.04H638.16C636.773 65.04 635.587 64.52 634.6 63.4799C633.613 62.4399 633.093 61.1466 633.04 59.6V56.8L630.04 58.28L630.52 54.24C630.6 53.7066 630.853 53.32 631.28 53.08L633.12 52.04L633.04 33.4H622.56L623.08 29.48H633V27.2H640.12L640.08 29.48H641.24V27.2H643.56C643.88 27.2 644.147 27.32 644.36 27.56C644.6 27.7733 644.72 28.0666 644.72 28.44L644.76 29.48H645.2L644.68 33.4H640.2L640.28 48.4L643.16 47ZM621.84 29.48L620.76 37.6399H630.92L627.88 60.32C627.747 61.52 627.24 62.5466 626.36 63.4C625.48 64.2533 624.48 64.68 623.36 64.68H618.08L618.52 61.4399H619.16C619.533 61.4399 619.893 61.3066 620.24 61.04C620.587 60.7733 620.787 60.4533 620.84 60.08L623.36 41.2H620.28L617.72 60.72C617.56 61.8933 617.067 62.8533 616.24 63.6C615.44 64.32 614.453 64.68 613.28 64.68H608.88L609.28 61.7599H609.52C609.973 61.7599 610.227 61.4933 610.28 60.96L614.24 31.24C614.32 30.7333 614.533 30.32 614.88 30C615.253 29.6533 615.68 29.48 616.16 29.48H621.84ZM610.16 27.2L609.52 32.08H612.28L611.96 34.5199C611.907 34.76 611.8 34.9599 611.64 35.12C611.48 35.2533 611.293 35.32 611.08 35.32H609.08L605.72 60.64L608.52 60.4399L608.16 63.08C608.133 63.3466 608.027 63.56 607.84 63.72C607.68 63.88 607.48 63.9733 607.24 64L594.72 64.7999L595.08 62.04C595.107 61.8266 595.187 61.6399 595.32 61.4799C595.48 61.3466 595.667 61.28 595.88 61.28L598.28 61.1199L601.68 35.32H598.92L599.24 32.88C599.293 32.64 599.4 32.4533 599.56 32.32C599.72 32.16 599.907 32.08 600.12 32.08H602.12L602.64 28.12C602.693 27.8533 602.813 27.64 603 27.4799C603.187 27.2933 603.413 27.2 603.68 27.2H610.16Z" fill="url(#paint6_linear_331_2509)"/>
<path d="M668.471 36.04C667.991 36.04 667.565 36.2 667.191 36.52C666.845 36.84 666.631 37.24 666.551 37.72L662.791 62.84H671.031L674.831 36.04H668.471ZM712.951 31.64L713.311 29H693.911L693.791 28.2C693.765 27.9333 693.658 27.72 693.471 27.56C693.285 27.3733 693.071 27.28 692.831 27.28H685.671L685.871 29H667.911C667.565 29 667.271 29.1066 667.031 29.32C666.791 29.5333 666.645 29.8133 666.591 30.16L666.191 32.92H685.351L684.911 36.04H676.551L676.111 39.68H684.431L681.031 65H689.031L692.431 39.68H702.711L700.111 57.68C700.031 58.24 699.778 58.7066 699.351 59.08C698.925 59.48 698.445 59.68 697.911 59.68H695.351C694.898 59.68 694.511 59.84 694.191 60.16C693.871 60.4799 693.671 60.8666 693.591 61.32L693.351 62.84H703.231C704.405 62.84 705.458 62.4133 706.391 61.56C707.298 60.7333 707.858 59.6933 708.071 58.44L711.191 36.04H692.911L693.351 32.92H711.511C711.885 32.92 712.205 32.8 712.471 32.56C712.738 32.32 712.898 32.0133 712.951 31.64Z" fill="url(#paint7_linear_331_2509)"/>
<path d="M743.903 65H751.183C751.477 65 751.743 64.8933 751.983 64.68C752.223 64.4933 752.357 64.2533 752.383 63.96L754.463 49.28H769.703L768.303 59.2C768.25 59.5466 768.103 59.84 767.863 60.08C767.597 60.2933 767.277 60.4 766.903 60.4H761.863C761.437 60.4 761.05 60.5466 760.703 60.84C760.357 61.1333 760.157 61.5066 760.103 61.96L759.863 63.6H772.263C773.33 63.6 774.303 63.2133 775.183 62.4399C776.063 61.6666 776.583 60.7466 776.743 59.68L778.583 46.52C778.637 46.0133 778.517 45.6 778.223 45.28C777.957 44.9333 777.583 44.76 777.103 44.76H771.983L773.543 33.76C773.677 32.8 773.463 31.9866 772.903 31.32C772.317 30.6533 771.557 30.32 770.623 30.32H757.503L757.943 27.28H750.343C750.023 27.28 749.743 27.3866 749.503 27.6C749.263 27.8133 749.117 28.08 749.063 28.4L748.783 30.32H736.143C735.877 30.32 735.637 30.4133 735.423 30.6C735.237 30.76 735.117 30.9733 735.063 31.24L734.663 34.12H748.263L746.743 44.76H732.383C732.117 44.76 731.877 44.8533 731.663 45.04C731.45 45.2266 731.317 45.4666 731.263 45.76L730.783 49.28H746.143L743.903 65ZM765.623 35.12L764.263 44.76H755.343L756.823 34.12H764.783C765.023 34.12 765.237 34.2266 765.423 34.44C765.583 34.6266 765.65 34.8533 765.623 35.12ZM775.863 36.48C775.89 36.8266 776.023 37.1066 776.263 37.32C776.503 37.5333 776.797 37.6399 777.143 37.6399H781.263L780.623 29.7199C780.57 29.1333 780.343 28.6666 779.943 28.32C779.543 27.9466 779.05 27.76 778.463 27.76H775.143L775.863 36.48Z" fill="url(#paint8_linear_331_2509)"/>
<path d="M846.816 37.92C845.882 38.72 844.816 39.12 843.616 39.12H810.656L807.656 60.6C807.496 61.8533 806.936 62.9066 805.976 63.76C805.016 64.5866 803.909 65 802.656 65H798.776L803.816 28.88H812.096L811.096 36.08H838.536C838.962 36.08 839.336 35.9466 839.656 35.68C839.976 35.4133 840.162 35.0666 840.216 34.64L840.616 31.88H812.896L813.296 28.88H822.176L822.376 27.28H829.056C829.482 27.28 829.829 27.44 830.096 27.76C830.362 28.08 830.469 28.4533 830.416 28.88H849.296L848.456 34.8799C848.269 36.1066 847.722 37.12 846.816 37.92ZM837.656 51.4H823.936L825.096 48.2H846.376L844.656 60.6C844.469 61.8533 843.896 62.8933 842.936 63.72C841.949 64.5733 840.856 65 839.656 65H827.656L827.696 64.56C827.829 63.76 828.189 63.1066 828.776 62.6C829.362 62.0933 830.056 61.84 830.856 61.84H834.736C835.162 61.84 835.536 61.7066 835.856 61.4399C836.176 61.1466 836.362 60.7866 836.416 60.36L837.656 51.4ZM825.176 45.44L819.816 59.68C818.082 63.2266 815.509 65 812.096 65H809.296L816.696 45.44H811.856L812.056 44.24C812.136 43.6533 812.389 43.1733 812.816 42.8C813.242 42.4266 813.736 42.24 814.296 42.24H825.776L826.016 40.44H832.496C832.976 40.44 833.362 40.6266 833.656 41C833.976 41.3466 834.109 41.76 834.056 42.24H847.496L847.336 43.44C847.256 44.0266 847.002 44.5066 846.576 44.88C846.149 45.2533 845.642 45.44 845.056 45.44H825.176Z" fill="url(#paint9_linear_331_2509)"/>
<path d="M866.768 65H872.768C875.781 65 878.221 63.5866 880.088 60.7599L894.448 38.92H914.008C915.101 38.92 915.874 38.3066 916.328 37.08L917.288 34.32H897.448L901.288 27.28H891.848C891.208 27.28 890.701 27.5866 890.328 28.2L886.648 34.32H873.928C872.488 34.32 871.474 35.1333 870.888 36.76L870.088 38.92H883.648L866.768 65ZM905.608 62.1199C906.728 64.0399 908.248 65 910.168 65H916.128L904.368 42.96C904.101 42.5066 903.741 42.28 903.288 42.28H894.968L905.608 62.1199Z" fill="url(#paint10_linear_331_2509)"/>
<path d="M946.56 43.52H951.76C952.347 43.52 952.853 43.32 953.28 42.92C953.733 42.52 954.013 42 954.12 41.36L954.88 35.48H962.16C962.533 35.48 962.853 35.36 963.12 35.12C963.387 34.88 963.547 34.56 963.6 34.16L963.84 32.36H962.48L963.64 27.96H959.76C958.507 27.96 957.6 28.68 957.04 30.12L956.44 32.36H955.32L955.96 27.4H949.96C949.587 27.4 949.267 27.5333 949 27.8C948.733 28.0666 948.56 28.3866 948.48 28.76L948.04 32.36H946.72V30.48C946.693 29.76 946.453 29.16 946 28.68C945.547 28.2 944.987 27.96 944.32 27.96H940.8V32.36H940.32C940.08 32.36 939.867 32.44 939.68 32.6C939.493 32.76 939.387 32.9733 939.36 33.24L939.08 35.48H947.6L946.56 43.52ZM946.24 36.36H941.52C940.907 36.36 940.44 36.7066 940.12 37.4L938 43.52H940.36C942.387 43.52 943.907 42.4 944.92 40.16L946.24 36.36ZM959.56 64.92L959.64 64.4C959.747 63.4666 959.573 62.6133 959.12 61.84C958.667 61.0933 958.013 60.5733 957.16 60.28L954.8 59.4799L957.32 58.8C957.827 58.64 958.253 58.3466 958.6 57.92C958.947 57.4666 959.16 56.96 959.24 56.4L960.16 49.2H960.76C961 49.2 961.213 49.12 961.4 48.96C961.587 48.7733 961.707 48.5466 961.76 48.28L962.04 46.04H960.6L960.76 44.8H954.24C953.92 44.8 953.64 44.92 953.4 45.16C953.16 45.3733 953.013 45.6533 952.96 46V46.04H946.72L946.88 44.8H940.24C939.947 44.8 939.693 44.9066 939.48 45.12C939.267 45.3066 939.147 45.5466 939.12 45.84L939.08 46.04H938.44C938.227 46.04 938.027 46.12 937.84 46.28C937.68 46.44 937.587 46.64 937.56 46.88L937.24 49.2H938.68L937.72 56.48C937.64 57.04 937.72 57.52 937.96 57.92C938.2 58.3466 938.56 58.64 939.04 58.8L941.32 59.4799L938.24 60.4399C936.587 61.0266 935.6 62.2266 935.28 64.04L935.16 64.92L947.84 61.4399L959.56 64.92ZM948.36 57.36L945.96 56.52C945.56 56.36 945.4 56.04 945.48 55.56L946.32 49.2H952.52L951.68 55.56C951.627 56.04 951.387 56.36 950.96 56.52L948.36 57.36ZM961.8 37.32C961.773 37.0533 961.667 36.8266 961.48 36.64C961.293 36.4533 961.067 36.36 960.8 36.36H956L956.4 40.88C956.48 41.6533 956.773 42.2933 957.28 42.8C957.813 43.28 958.44 43.52 959.16 43.52H962.36L961.8 37.32ZM971.8 39.2C971.693 38.7466 971.48 38.3866 971.16 38.12C970.867 37.8533 970.507 37.72 970.08 37.72H964.2L967 51.6L960.4 65H962.68C965.987 65 968.613 63.32 970.56 59.96L970.6 60.08C971.933 63.36 974.04 65 976.92 65H979.76L976.12 52.44L984.04 33.52H978.32C977.467 33.52 976.813 33.9733 976.36 34.8799L972.64 43.4L971.8 39.2ZM964.4 35.4H968.8C970.72 35.4 972.133 34.3333 973.04 32.2H982.16C982.8 32.2 983.36 31.9866 983.84 31.5599C984.347 31.1066 984.653 30.52 984.76 29.8L984.84 29.08H974.12L974.72 27.28H968.16C967.52 27.28 967.053 27.6266 966.76 28.32L964.4 35.4Z" fill="url(#paint11_linear_331_2509)"/>
<path d="M1051.03 44.48C1050.95 44.96 1050.74 45.36 1050.39 45.68C1050.07 46 1049.67 46.16 1049.19 46.16H1044.27L1043.79 49.88H1049.67L1048.19 61.08C1048.06 62.1466 1047.58 63.0666 1046.75 63.84C1045.93 64.6133 1045.01 65 1043.99 65H1031.75C1030.74 65 1029.93 64.6133 1029.31 63.84C1028.7 63.0666 1028.46 62.1466 1028.59 61.08L1030.07 49.88H1035.95L1036.47 46.16H1029.91L1030.11 44.68C1030.19 44.2 1030.41 43.8 1030.75 43.48C1031.1 43.16 1031.5 43 1031.95 43H1036.87L1037.11 41.4C1037.17 40.8933 1037.37 40.48 1037.71 40.16C1038.09 39.8133 1038.51 39.64 1038.99 39.64H1045.15L1044.71 43H1051.23L1051.03 44.48ZM1040.39 60.84L1041.43 53.08H1037.47L1036.43 60.84C1036.41 61.1066 1036.47 61.3333 1036.63 61.52C1036.79 61.7066 1036.99 61.7999 1037.23 61.7999H1039.35C1039.59 61.7999 1039.82 61.7066 1040.03 61.52C1040.25 61.3333 1040.37 61.1066 1040.39 60.84ZM1050.71 37.32C1049.86 38.12 1048.85 38.52 1047.67 38.52H1030.03L1027.23 59.6C1027.15 60.1866 1026.97 60.7999 1026.67 61.4399C1026.38 62.0799 1026.01 62.6533 1025.55 63.16C1025.13 63.6933 1024.63 64.1333 1024.07 64.4799C1023.51 64.8266 1022.95 65 1022.39 65H1018.71L1019.27 60.6L1019.43 59.32L1023.63 27.64H1031.47L1031.03 30.8L1030.95 31.64L1030.43 35.36H1042.95C1043.33 35.36 1043.67 35.2133 1043.99 34.92C1044.29 34.6533 1044.46 34.3066 1044.51 33.88L1044.95 30.8H1031.95L1032.39 27.64H1053.15L1052.27 34.24C1052.09 35.4933 1051.57 36.52 1050.71 37.32ZM1019.47 48.28L1019.19 50.32C1018.98 51.4666 1018.33 52.1466 1017.23 52.36L1015.63 52.6L1014.59 60.4C1014.43 61.6 1013.9 62.6266 1012.99 63.4799C1012.06 64.36 1011.02 64.7999 1009.87 64.7999H1002.79L1002.95 63.72C1003.03 63.1066 1003.29 62.6 1003.71 62.2C1004.14 61.7999 1004.65 61.6 1005.23 61.6C1005.61 61.6 1005.95 61.4533 1006.27 61.16C1006.59 60.8666 1006.78 60.5333 1006.83 60.16L1007.67 53.6L1004.11 54.04L1004.39 52.04C1004.47 51.48 1004.69 51.0133 1005.03 50.64C1005.41 50.2666 1005.86 50.04 1006.39 49.96L1008.19 49.76L1010.07 35.6H1006.59L1006.83 33.64C1006.91 33.08 1007.14 32.6266 1007.51 32.28C1007.91 31.9066 1008.38 31.72 1008.91 31.72H1010.59L1010.87 29.48C1010.98 28.84 1011.26 28.3066 1011.71 27.8799C1012.17 27.4533 1012.7 27.24 1013.31 27.24H1018.99L1018.39 31.72H1021.67L1021.43 33.68C1021.33 34.24 1021.07 34.7066 1020.67 35.08C1020.3 35.4266 1019.86 35.6 1019.35 35.6H1017.91L1016.15 48.72L1019.47 48.28Z" fill="url(#paint12_linear_331_2509)"/>
<path d="M1118.3 53.24L1118.18 54.4C1117.92 55.7333 1117.16 56.5733 1115.9 56.92L1112.82 57.6L1116.74 65H1111.7C1108.98 65 1107.1 63.8133 1106.06 61.4399L1100.82 51.4H1092.82L1091.58 60.24C1091.53 60.72 1091.64 61.08 1091.9 61.32C1092.17 61.5333 1092.54 61.64 1093.02 61.64H1094.14C1095 61.64 1095.69 61.96 1096.22 62.6C1096.76 63.24 1096.97 64.0133 1096.86 64.92H1087.42C1086.84 64.92 1086.28 64.8133 1085.74 64.6C1085.21 64.36 1084.76 64.04 1084.38 63.64C1084.01 63.24 1083.73 62.7466 1083.54 62.16C1083.38 61.5999 1083.34 60.9466 1083.42 60.2L1084.66 51.4H1081.66L1081.86 50.08C1081.94 49.52 1082.18 49.0666 1082.58 48.72C1082.98 48.3466 1083.45 48.16 1083.98 48.16H1086.38L1087.02 43.28H1083.18L1083.38 41.76C1083.46 41.2533 1083.68 40.84 1084.02 40.52C1084.4 40.2 1084.82 40.04 1085.3 40.04H1087.46C1087.52 39.6666 1087.66 39.3733 1087.9 39.16C1088.17 38.92 1088.46 38.8 1088.78 38.8H1095.78L1095.62 40.04H1107.58C1107.64 39.6666 1107.78 39.3733 1108.02 39.16C1108.26 38.92 1108.56 38.8 1108.9 38.8H1115.9L1115.74 40.04H1119.54L1119.26 42C1119.21 42.3733 1119.05 42.68 1118.78 42.92C1118.52 43.16 1118.21 43.28 1117.86 43.28H1115.3L1114.66 48.16H1118.9L1118.62 50.12C1118.57 50.4933 1118.41 50.8 1118.14 51.04C1117.88 51.28 1117.57 51.4 1117.22 51.4H1109.58L1111.34 54.76L1118.3 53.24ZM1106.5 48.16L1107.14 43.28H1095.18L1094.54 48.16H1106.5ZM1085.34 27.24H1121.1L1120.3 33.28C1120.22 33.8666 1120.04 34.4266 1119.74 34.96C1119.45 35.4933 1119.08 35.96 1118.62 36.36C1118.2 36.7333 1117.7 37.04 1117.14 37.28C1116.58 37.4933 1116 37.6 1115.38 37.6H1082.7L1079.58 60.56C1079.42 61.76 1078.89 62.7866 1077.98 63.64C1077.08 64.4933 1076.02 64.92 1074.82 64.92H1070.86L1075.94 27.24H1084.1L1083.1 34.4799H1111.06C1111.3 34.4799 1111.54 34.3866 1111.78 34.2C1112 34.0133 1112.12 33.7866 1112.14 33.52L1112.58 30.4H1084.9L1085.34 27.24Z" fill="url(#paint13_linear_331_2509)"/>
<path d="M1151.82 64.96H1161.46C1162.79 64.96 1163.98 64.4799 1165.02 63.52C1166.06 62.5333 1166.67 61.3333 1166.86 59.92L1169.26 41.84H1186.74C1187.14 41.84 1187.47 41.72 1187.74 41.48C1188.03 41.2133 1188.2 40.8666 1188.26 40.44L1188.66 37.56H1143.62C1143.16 37.56 1142.78 37.72 1142.46 38.04C1142.14 38.3333 1141.94 38.72 1141.86 39.2L1141.5 41.84H1161.22L1158.82 59.84C1158.76 60.24 1158.59 60.6 1158.3 60.92C1157.98 61.2133 1157.62 61.36 1157.22 61.36H1153.78C1153.35 61.36 1152.98 61.5066 1152.66 61.7999C1152.34 62.0933 1152.14 62.4666 1152.06 62.92L1151.82 64.96ZM1138.7 64.96H1139.42C1143.66 64.96 1146.74 62.5466 1148.66 57.72L1152.46 44.56H1146.3C1145.28 44.56 1144.56 45.12 1144.14 46.24L1138.7 64.96ZM1145.38 27.28C1145 27.28 1144.67 27.4133 1144.38 27.6799C1144.11 27.9199 1143.94 28.2533 1143.86 28.68L1143.54 31.24H1187.06C1187.59 31.24 1188.04 31.0666 1188.42 30.72C1188.82 30.3466 1189.06 29.8666 1189.14 29.28L1189.42 27.28H1145.38ZM1176.74 57.96C1176.84 59.96 1177.54 61.6266 1178.82 62.96C1180.12 64.2933 1181.7 64.96 1183.54 64.96H1184.82L1184.3 47.32C1184.27 46.52 1183.99 45.8666 1183.46 45.36C1182.95 44.8266 1182.34 44.56 1181.62 44.56H1176.38L1176.74 57.96Z" fill="url(#paint14_linear_331_2509)"/>
<path d="M1246.81 47.84C1246.86 48.2666 1247.02 48.6133 1247.29 48.88C1247.58 49.1466 1247.93 49.28 1248.33 49.28H1254.21L1253.37 42.8C1253.21 41.6533 1252.74 40.7066 1251.97 39.96C1251.2 39.2133 1250.29 38.84 1249.25 38.84H1245.73L1246.29 43.92L1233.33 44.56L1244.61 31.8H1238.53C1237.92 31.8 1237.34 32.0266 1236.81 32.4799L1232.29 36.76L1222.21 37.4C1221.97 37.48 1221.82 37.4 1221.77 37.16C1221.69 37 1221.73 36.8133 1221.89 36.6L1226.65 30.6H1254.21C1254.88 30.6 1255.46 30.36 1255.97 29.88C1256.5 29.3733 1256.82 28.7466 1256.93 28L1257.01 27.3199H1214.29C1213.6 27.3199 1213 27.5733 1212.49 28.08C1211.98 28.56 1211.66 29.1866 1211.53 29.96L1211.45 30.6H1218.29L1212.41 37.56C1212.12 37.8266 1211.92 38.1866 1211.81 38.64C1211.73 39.0933 1211.73 39.52 1211.81 39.92C1211.92 40.32 1212.12 40.6533 1212.41 40.92C1212.68 41.2133 1213.06 41.3466 1213.57 41.32L1228.81 40.2L1224.05 45.04L1211.49 45.64C1210.9 45.6666 1210.41 45.8933 1210.01 46.32C1209.61 46.72 1209.36 47.24 1209.25 47.88L1209.13 48.96L1227.89 48.08L1226.33 60.24C1226.28 60.64 1226.1 61 1225.81 61.32C1225.52 61.6133 1225.17 61.7599 1224.77 61.7599H1223.13C1222.38 61.7599 1221.73 62.0133 1221.17 62.52C1220.64 63.0533 1220.3 63.7333 1220.17 64.56L1220.13 65H1229.41C1230.53 65 1231.54 64.5733 1232.45 63.72C1233.38 62.84 1233.93 61.7866 1234.09 60.56L1235.73 47.68L1246.73 47.12L1246.81 47.84ZM1207.05 65H1209.65C1212.45 65 1214.56 63.4266 1215.97 60.28L1219.61 50.24H1214.61C1213.36 50.24 1212.41 50.9333 1211.77 52.32L1207.05 65ZM1244.29 58.4C1244.53 60.32 1245.28 61.8933 1246.53 63.1199C1247.81 64.3733 1249.32 65 1251.05 65H1252.17L1250.81 53.16C1250.7 52.3066 1250.36 51.6133 1249.77 51.08C1249.21 50.52 1248.56 50.24 1247.81 50.24H1243.45L1244.29 58.4Z" fill="url(#paint15_linear_331_2509)"/>
<path d="M1314.92 45.6H1322.6L1322.64 39.4799C1322.61 37.8533 1322.07 36.48 1321 35.36C1319.96 34.24 1318.68 33.68 1317.16 33.68H1315.04L1314.76 40.92L1305.4 41.72C1305.05 41.7466 1304.81 41.6133 1304.68 41.32C1304.55 41.0533 1304.55 40.76 1304.68 40.44L1308.68 31.96H1323.32C1323.75 31.96 1324.12 31.8266 1324.44 31.5599C1324.76 31.2666 1324.96 30.8933 1325.04 30.4399L1325.24 28.7999H1315.08C1315.13 28.3733 1315.03 28.0133 1314.76 27.72C1314.52 27.4266 1314.2 27.28 1313.8 27.28H1307.28L1307.08 28.7999H1298.36C1297.93 28.7999 1297.56 28.9466 1297.24 29.24C1296.92 29.5066 1296.73 29.8666 1296.68 30.32L1296.44 31.96H1300.76L1296.24 41.6C1296.03 42.1066 1295.95 42.5866 1296 43.04C1296.03 43.52 1296.15 43.9466 1296.36 44.32C1296.6 44.6933 1296.92 44.9866 1297.32 45.2C1297.72 45.4133 1298.17 45.5066 1298.68 45.48L1314.92 44.12V45.6ZM1292.64 65C1297.41 65 1300.95 62.3866 1303.24 57.16L1306.52 47.2H1300.36C1299.29 47.2 1298.51 47.7866 1298 48.96L1292.64 65ZM1312.44 47.2C1312.04 47.2 1311.69 47.3333 1311.4 47.6C1311.11 47.8666 1310.92 48.2133 1310.84 48.64L1309.24 60.72C1309.05 61.9466 1309.32 62.9733 1310.04 63.7999C1310.76 64.5999 1311.71 65 1312.88 65H1321.64C1321.72 64.12 1321.49 63.36 1320.96 62.72C1320.45 62.1066 1319.8 61.7999 1319 61.7999H1318.48C1318.08 61.7999 1317.77 61.6533 1317.56 61.36C1317.32 61.0933 1317.23 60.7466 1317.28 60.32L1319.04 47.2H1312.44ZM1275.84 61.04C1276.21 60.6933 1276.61 60.4933 1277.04 60.4399L1291.08 59.24L1290.56 62.1199C1290.51 62.4666 1290.33 62.7866 1290.04 63.08C1289.8 63.3466 1289.52 63.5066 1289.2 63.56L1274.84 64.7999L1275.28 62.28C1275.36 61.8 1275.55 61.3866 1275.84 61.04ZM1291.6 50.16C1291.89 50.16 1292.12 50.24 1292.28 50.4C1292.36 50.6133 1292.37 50.88 1292.32 51.2L1291.56 54.84L1277.32 56.44C1276.87 56.4666 1276.56 56.2933 1276.4 55.92C1276.19 55.52 1276.19 55.1066 1276.4 54.68L1284.04 42.44H1277.92C1277.47 42.44 1277.15 42.2666 1276.96 41.92C1276.75 41.5733 1276.76 41.1866 1277 40.76L1283.92 28.16C1284.21 27.6266 1284.76 27.36 1285.56 27.36H1290.12L1284 38.64C1283.71 39.2266 1283.81 39.52 1284.32 39.52H1285.72L1288.92 33.76C1289.27 33.2 1289.65 32.92 1290.08 32.92H1295.48L1285.44 50.08L1285.4 50.12C1285.29 50.3066 1285.24 50.4666 1285.24 50.6C1285.24 50.7333 1285.36 50.7866 1285.6 50.76L1291.6 50.16Z" fill="url(#paint16_linear_331_2509)"/>
</g>
<path d="M1449.73 41H1460L1452.77 52.5H1442.5L1449.73 41Z" fill="url(#paint17_linear_331_2509)"/>
<path opacity="0.5" d="M1469.73 41H1480L1472.77 52.5H1462.5L1469.73 41Z" fill="url(#paint18_linear_331_2509)"/>
<path opacity="0.2" d="M1489.73 41H1500L1492.77 52.5H1482.5L1489.73 41Z" fill="url(#paint19_linear_331_2509)"/>
<path d="M467.27 41H457L464.23 52.5H474.5L467.27 41Z" fill="url(#paint20_linear_331_2509)"/>
<path opacity="0.5" d="M447.27 41H437L444.23 52.5H454.5L447.27 41Z" fill="url(#paint21_linear_331_2509)"/>
<path opacity="0.2" d="M427.27 41H417L424.23 52.5H434.5L427.27 41Z" fill="url(#paint22_linear_331_2509)"/>
<path d="M936 87H1049L1054 92H931L936 87Z" fill="#4069FC"/>
<defs>
<filter id="filter0_d_331_2509" x="492" y="0" width="936" height="117" filterUnits="userSpaceOnUse" color-interpolation-filters="sRGB">
<feFlood flood-opacity="0" result="BackgroundImageFix"/>
<feColorMatrix in="SourceAlpha" type="matrix" values="0 0 0 0 0 0 0 0 0 0 0 0 0 0 0 0 0 0 127 0" result="hardAlpha"/>
<feOffset dy="10"/>
<feGaussianBlur stdDeviation="10"/>
<feComposite in2="hardAlpha" operator="out"/>
<feColorMatrix type="matrix" values="0 0 0 0 0 0 0 0 0 0 0 0 0 0 0 0 0 0 0.3 0"/>
<feBlend mode="normal" in2="BackgroundImageFix" result="effect1_dropShadow_331_2509"/>
<feBlend mode="normal" in="SourceGraphic" in2="effect1_dropShadow_331_2509" result="shape"/>
</filter>
<filter id="filter1_d_331_2509" x="594.72" y="27.2" width="730.521" height="43.84" filterUnits="userSpaceOnUse" color-interpolation-filters="sRGB">
<feFlood flood-opacity="0" result="BackgroundImageFix"/>
<feColorMatrix in="SourceAlpha" type="matrix" values="0 0 0 0 0 0 0 0 0 0 0 0 0 0 0 0 0 0 127 0" result="hardAlpha"/>
<feOffset dy="6"/>
<feComposite in2="hardAlpha" operator="out"/>
<feColorMatrix type="matrix" values="0 0 0 0 0 0 0 0 0 0 0 0 0 0 0 0 0 0 0.25 0"/>
<feBlend mode="normal" in2="BackgroundImageFix" result="effect1_dropShadow_331_2509"/>
<feBlend mode="normal" in="SourceGraphic" in2="effect1_dropShadow_331_2509" result="shape"/>
</filter>
<linearGradient id="paint0_linear_331_2509" x1="532.177" y1="31.0003" x2="102.342" y2="31.0003" gradientUnits="userSpaceOnUse">
<stop stop-color="#1F2B9B"/>
<stop offset="1" stop-color="#1F2B9B" stop-opacity="0"/>
</linearGradient>
<linearGradient id="paint1_linear_331_2509" x1="532.177" y1="21.0003" x2="102.342" y2="21.0003" gradientUnits="userSpaceOnUse">
<stop stop-color="#1F2B9B"/>
<stop offset="1" stop-color="#1F2B9B" stop-opacity="0"/>
</linearGradient>
<linearGradient id="paint2_linear_331_2509" x1="960" y1="10" x2="960" y2="106" gradientUnits="userSpaceOnUse">
<stop offset="0.0572917" stop-color="#0E1E70"/>
<stop offset="0.505208" stop-color="#143C9F"/>
<stop offset="0.9375" stop-color="#246FFF"/>
</linearGradient>
<linearGradient id="paint3_linear_331_2509" x1="1382.36" y1="89.4873" x2="1419.5" y2="25.0054" gradientUnits="userSpaceOnUse">
<stop stop-color="#416BFF"/>
<stop offset="1" stop-color="#416BFF" stop-opacity="0"/>
</linearGradient>
<linearGradient id="paint4_linear_331_2509" x1="534.707" y1="89.4873" x2="497.566" y2="25.0054" gradientUnits="userSpaceOnUse">
<stop stop-color="#416BFF"/>
<stop offset="1" stop-color="#416BFF" stop-opacity="0"/>
</linearGradient>
<linearGradient id="paint5_linear_331_2509" x1="0" y1="23" x2="1920" y2="23" gradientUnits="userSpaceOnUse">
<stop stop-color="#0E2B78" stop-opacity="0"/>
<stop offset="0.322917" stop-color="#225EF9"/>
<stop offset="0.479167" stop-color="#225EF9"/>
<stop offset="0.682292" stop-color="#225EF9"/>
<stop offset="1" stop-color="#0E2B78" stop-opacity="0"/>
</linearGradient>
<linearGradient id="paint6_linear_331_2509" x1="960" y1="19" x2="960" y2="78" gradientUnits="userSpaceOnUse">
<stop offset="0.484375" stop-color="white"/>
<stop offset="1" stop-color="#476EFA"/>
</linearGradient>
<linearGradient id="paint7_linear_331_2509" x1="960" y1="19" x2="960" y2="78" gradientUnits="userSpaceOnUse">
<stop offset="0.484375" stop-color="white"/>
<stop offset="1" stop-color="#476EFA"/>
</linearGradient>
<linearGradient id="paint8_linear_331_2509" x1="960" y1="19" x2="960" y2="78" gradientUnits="userSpaceOnUse">
<stop offset="0.484375" stop-color="white"/>
<stop offset="1" stop-color="#476EFA"/>
</linearGradient>
<linearGradient id="paint9_linear_331_2509" x1="960" y1="19" x2="960" y2="78" gradientUnits="userSpaceOnUse">
<stop offset="0.484375" stop-color="white"/>
<stop offset="1" stop-color="#476EFA"/>
</linearGradient>
<linearGradient id="paint10_linear_331_2509" x1="960" y1="19" x2="960" y2="78" gradientUnits="userSpaceOnUse">
<stop offset="0.484375" stop-color="white"/>
<stop offset="1" stop-color="#476EFA"/>
</linearGradient>
<linearGradient id="paint11_linear_331_2509" x1="960" y1="19" x2="960" y2="78" gradientUnits="userSpaceOnUse">
<stop offset="0.484375" stop-color="white"/>
<stop offset="1" stop-color="#476EFA"/>
</linearGradient>
<linearGradient id="paint12_linear_331_2509" x1="960" y1="19" x2="960" y2="78" gradientUnits="userSpaceOnUse">
<stop offset="0.484375" stop-color="white"/>
<stop offset="1" stop-color="#476EFA"/>
</linearGradient>
<linearGradient id="paint13_linear_331_2509" x1="960" y1="19" x2="960" y2="78" gradientUnits="userSpaceOnUse">
<stop offset="0.484375" stop-color="white"/>
<stop offset="1" stop-color="#476EFA"/>
</linearGradient>
<linearGradient id="paint14_linear_331_2509" x1="960" y1="19" x2="960" y2="78" gradientUnits="userSpaceOnUse">
<stop offset="0.484375" stop-color="white"/>
<stop offset="1" stop-color="#476EFA"/>
</linearGradient>
<linearGradient id="paint15_linear_331_2509" x1="960" y1="19" x2="960" y2="78" gradientUnits="userSpaceOnUse">
<stop offset="0.484375" stop-color="white"/>
<stop offset="1" stop-color="#476EFA"/>
</linearGradient>
<linearGradient id="paint16_linear_331_2509" x1="960" y1="19" x2="960" y2="78" gradientUnits="userSpaceOnUse">
<stop offset="0.484375" stop-color="white"/>
<stop offset="1" stop-color="#476EFA"/>
</linearGradient>
<linearGradient id="paint17_linear_331_2509" x1="1441.62" y1="41" x2="1482.49" y2="58.5068" gradientUnits="userSpaceOnUse">
<stop stop-color="#2764FF"/>
<stop offset="1" stop-color="#2764FF" stop-opacity="0.15"/>
</linearGradient>
<linearGradient id="paint18_linear_331_2509" x1="1461.62" y1="41" x2="1502.49" y2="58.5068" gradientUnits="userSpaceOnUse">
<stop stop-color="#2764FF"/>
<stop offset="1" stop-color="#2764FF" stop-opacity="0.15"/>
</linearGradient>
<linearGradient id="paint19_linear_331_2509" x1="1481.62" y1="41" x2="1522.49" y2="58.5068" gradientUnits="userSpaceOnUse">
<stop stop-color="#2764FF"/>
<stop offset="1" stop-color="#2764FF" stop-opacity="0.15"/>
</linearGradient>
<linearGradient id="paint20_linear_331_2509" x1="475.378" y1="41" x2="434.514" y2="58.5068" gradientUnits="userSpaceOnUse">
<stop stop-color="#2764FF"/>
<stop offset="1" stop-color="#2764FF" stop-opacity="0.15"/>
</linearGradient>
<linearGradient id="paint21_linear_331_2509" x1="455.378" y1="41" x2="414.514" y2="58.5068" gradientUnits="userSpaceOnUse">
<stop stop-color="#2764FF"/>
<stop offset="1" stop-color="#2764FF" stop-opacity="0.15"/>
</linearGradient>
<linearGradient id="paint22_linear_331_2509" x1="435.378" y1="41" x2="394.514" y2="58.5068" gradientUnits="userSpaceOnUse">
<stop stop-color="#2764FF"/>
<stop offset="1" stop-color="#2764FF" stop-opacity="0.15"/>
</linearGradient>
</defs>
</svg>
