<svg width="870" height="515" viewBox="0 0 870 515" fill="none" xmlns="http://www.w3.org/2000/svg">
<mask id="path-1-inside-1_206_19665" fill="white">
<path fill-rule="evenodd" clip-rule="evenodd" d="M0 0.724365H870V193.296L859 199V317L870 322.704V514.724H0V322.704L11 317V199L0 193.296V0.724365Z"/>
</mask>
<path fill-rule="evenodd" clip-rule="evenodd" d="M0 0.724365H870V193.296L859 199V317L870 322.704V514.724H0V322.704L11 317V199L0 193.296V0.724365Z" fill="black" fill-opacity="0.3"/>
<path d="M870 0.724365H871V-0.275635H870V0.724365ZM0 0.724365V-0.275635H-1V0.724365H0ZM870 193.296L870.46 194.184L871 193.904V193.296H870ZM859 199L858.54 198.112L858 198.392V199H859ZM859 317H858V317.608L858.54 317.888L859 317ZM870 322.704H871V322.096L870.46 321.816L870 322.704ZM870 514.724V515.724H871V514.724H870ZM0 514.724H-1V515.724H0V514.724ZM0 322.704L-0.460317 321.816L-1 322.096V322.704H0ZM11 317L11.4603 317.888L12 317.608V317H11ZM11 199H12V198.392L11.4603 198.112L11 199ZM0 193.296H-1V193.904L-0.460317 194.184L0 193.296ZM870 -0.275635H0V1.72437H870V-0.275635ZM871 193.296V0.724365H869V193.296H871ZM869.54 192.409L858.54 198.112L859.46 199.888L870.46 194.184L869.54 192.409ZM858 199V317H860V199H858ZM858.54 317.888L869.54 323.591L870.46 321.816L859.46 316.112L858.54 317.888ZM871 514.724V322.704H869V514.724H871ZM0 515.724H870V513.724H0V515.724ZM-1 322.704V514.724H1V322.704H-1ZM10.5397 316.112L-0.460317 321.816L0.460317 323.591L11.4603 317.888L10.5397 316.112ZM10 199V317H12V199H10ZM-0.460317 194.184L10.5397 199.888L11.4603 198.112L0.460317 192.409L-0.460317 194.184ZM-1 0.724365V193.296H1V0.724365H-1Z" fill="#4069FC" fill-opacity="0.6" mask="url(#path-1-inside-1_206_19665)"/>
</svg>
